<svg width="18" height="17" viewBox="0 0 18 17" fill="none" xmlns="http://www.w3.org/2000/svg">
<path d="M16.0262 5.51959C15.993 4.76791 15.8711 4.25113 15.6964 3.80334C15.5162 3.32802 15.2391 2.90247 14.8759 2.54871C14.5211 2.18944 14.0915 1.91027 13.6202 1.73344C13.1685 1.55931 12.6529 1.43775 11.899 1.40461C11.1394 1.36866 10.8983 1.36035 8.97189 1.36035C7.04546 1.36035 6.80433 1.36866 6.0476 1.40181C5.29368 1.43495 4.77537 1.55661 4.32635 1.73063C3.84951 1.91027 3.42269 2.18663 3.06787 2.54871C2.70753 2.90247 2.42764 3.33083 2.25018 3.80064C2.07553 4.25113 1.95361 4.7651 1.92037 5.51678C1.88431 6.27408 1.87598 6.51449 1.87598 8.4352C1.87598 10.3559 1.88431 10.5963 1.91755 11.3508C1.95079 12.1025 2.07282 12.6193 2.24747 13.0671C2.42764 13.5424 2.70753 13.9679 3.06787 14.3217C3.42269 14.681 3.85232 14.9601 4.32353 15.137C4.77537 15.3111 5.29086 15.4327 6.04489 15.4658C6.80152 15.499 7.04275 15.5072 8.96918 15.5072C10.8956 15.5072 11.1367 15.499 11.8935 15.4658C12.6474 15.4327 13.1657 15.3111 13.6147 15.137C14.5683 14.7694 15.3222 14.0177 15.6909 13.0671C15.8654 12.6166 15.9875 12.1025 16.0207 11.3508C16.0539 10.5963 16.0623 10.3559 16.0623 8.4352C16.0623 6.51449 16.0595 6.27408 16.0262 5.51959ZM14.7485 11.2955C14.7179 11.9864 14.6015 12.3595 14.5045 12.6083C14.2661 13.2246 13.7755 13.7137 13.1574 13.9514C12.9079 14.0481 12.531 14.1642 11.8407 14.1945C11.0923 14.2278 10.8679 14.236 8.9747 14.236C7.08152 14.236 6.85425 14.2278 6.10856 14.1945C5.4156 14.1642 5.0414 14.0481 4.79193 13.9514C4.48432 13.8381 4.20432 13.6584 3.97705 13.4235C3.74145 13.1941 3.56128 12.9178 3.44759 12.6111C3.35057 12.3623 3.23418 11.9864 3.20375 11.2984C3.1704 10.5522 3.16218 10.3283 3.16218 8.44071C3.16218 6.55314 3.1704 6.32654 3.20375 5.58318C3.23418 4.89227 3.35057 4.51918 3.44759 4.27046C3.56128 3.96365 3.74145 3.68459 3.97987 3.45789C4.20984 3.22298 4.48703 3.04335 4.79475 2.93011C5.04421 2.83338 5.42123 2.71733 6.11137 2.68689C6.85977 2.65374 7.08433 2.64543 8.97741 2.64543C10.8734 2.64543 11.0979 2.65374 11.8436 2.68689C12.5365 2.71733 12.9107 2.83338 13.1602 2.93011C13.4678 3.04335 13.7478 3.22298 13.9751 3.45789C14.2107 3.68729 14.3908 3.96365 14.5045 4.27046C14.6015 4.51918 14.7179 4.89497 14.7485 5.58318C14.7817 6.32935 14.79 6.55314 14.79 8.44071C14.79 10.3283 14.7817 10.5494 14.7485 11.2955Z" fill="white"/>
<path d="M8.96956 4.86523C6.99427 4.86523 5.3916 6.46334 5.3916 8.43326C5.3916 10.4032 6.99427 12.0013 8.96956 12.0013C10.945 12.0013 12.5475 10.4032 12.5475 8.43326C12.5475 6.46334 10.945 4.86523 8.96956 4.86523ZM8.96956 10.7477C7.68809 10.7477 6.64863 9.71128 6.64863 8.43326C6.64863 7.15524 7.68809 6.11877 8.96956 6.11877C10.2511 6.11877 11.2905 7.15524 11.2905 8.43326C11.2905 9.71128 10.2511 10.7477 8.96956 10.7477Z" fill="white"/>
<path d="M13.5515 4.67704C13.5515 5.12643 13.1861 5.4908 12.7354 5.4908C12.2848 5.4908 11.9194 5.12643 11.9194 4.67704C11.9194 4.22755 12.2848 3.86328 12.7354 3.86328C13.1861 3.86328 13.5515 4.22755 13.5515 4.67704Z" fill="white"/>
</svg>
