<svg width="24" height="24" viewBox="0 0 24 24" fill="none" xmlns="http://www.w3.org/2000/svg">
<path fill-rule="evenodd" clip-rule="evenodd" d="M17.4545 6.54545H22C23.1046 6.54545 24 7.44089 24 8.54545V22C24 23.1046 23.1046 24 22 24H8.54546C7.44089 24 6.54545 23.1046 6.54545 22V17.4545H2C0.89543 17.4545 0 16.5591 0 15.4545V2C0 0.895432 0.895431 0 2 0H15.4545C16.5591 0 17.4545 0.89543 17.4545 2V6.54545ZM22.9091 9.63636C22.9091 8.53179 22.0137 7.63636 20.9091 7.63636H9.63636C8.53179 7.63636 7.63636 8.53179 7.63636 9.63636V20.9091C7.63636 22.0137 8.53179 22.9091 9.63636 22.9091H20.9091C22.0137 22.9091 22.9091 22.0137 22.9091 20.9091V9.63636ZM16.3636 6.54545V3.09091C16.3636 1.98634 15.4682 1.09091 14.3636 1.09091H3.09091C1.98634 1.09091 1.09091 1.98634 1.09091 3.09091V14.3636C1.09091 15.4682 1.98634 16.3636 3.09091 16.3636H4.54545C5.65002 16.3636 6.54545 15.4682 6.54545 14.3636V8.54546C6.54545 7.44089 7.44089 6.54545 8.54545 6.54545H16.3636Z" fill="#232323"/>
</svg>
