<svg width="5" height="23" viewBox="0 0 5 23" fill="none" xmlns="http://www.w3.org/2000/svg">
<path d="M4.63867 0.671875L4.21387 15.5986H0.947266L0.522461 0.671875H4.63867ZM0.405273 20.1982C0.405273 19.6221 0.600586 19.1387 0.991211 18.748C1.3916 18.3477 1.92871 18.1475 2.60254 18.1475C3.27637 18.1475 3.80859 18.3477 4.19922 18.748C4.59961 19.1387 4.7998 19.6221 4.7998 20.1982C4.7998 20.7646 4.59961 21.2432 4.19922 21.6338C3.80859 22.0244 3.27637 22.2197 2.60254 22.2197C1.92871 22.2197 1.3916 22.0244 0.991211 21.6338C0.600586 21.2432 0.405273 20.7646 0.405273 20.1982Z" fill="#0066CC"/>
</svg>
