<svg width="24" height="24" viewBox="0 0 24 24" fill="none" xmlns="http://www.w3.org/2000/svg">
<path d="M15 14.7515C15 15.441 15.559 16 16.2485 16C17.3212 16 17.8945 17.2634 17.1881 18.0707L13.5052 22.2798C12.7083 23.1905 11.2917 23.1905 10.4948 22.2798L6.81185 18.0707C6.10549 17.2634 6.67878 16 7.75147 16C8.44101 16 9 15.441 9 14.7515L9 10C9 8.89543 9.89543 8 11 8L13 8C14.1046 8 15 8.89543 15 10L15 14.7515ZM22 2C22 0.89543 21.1046 -3.91405e-08 20 -8.74228e-08L4 -7.86805e-07C2.89543 -8.35087e-07 2 0.89543 2 2L2 12.5C2 13.3284 2.67157 14 3.5 14C4.32843 14 5 13.3284 5 12.5L5 8.75L5 5.5C5 4.39543 5.89429 3.5 6.99886 3.5C8.3966 3.5 10.3085 3.5 12 3.5C13.6915 3.5 15.6034 3.5 17.0011 3.5C18.1057 3.5 19 4.39543 19 5.5L19 8.75L19 12.5C19 13.3284 19.6716 14 20.5 14C21.3284 14 22 13.3284 22 12.5L22 2Z" fill="#232323"/>
</svg>
