<svg width="14" height="23" viewBox="0 0 14 23" fill="none" xmlns="http://www.w3.org/2000/svg">
<path d="M8.74512 15.5986H5.24414C5.25391 14.71 5.32715 13.9482 5.46387 13.3135C5.61035 12.6787 5.84961 12.1074 6.18164 11.5996C6.51367 11.082 6.96289 10.5547 7.5293 10.0176C7.97852 9.59766 8.37891 9.20215 8.73047 8.83105C9.0918 8.4502 9.375 8.05469 9.58008 7.64453C9.78516 7.22461 9.8877 6.75098 9.8877 6.22363C9.8877 5.62793 9.79004 5.12988 9.59473 4.72949C9.40918 4.3291 9.13086 4.02637 8.75977 3.82129C8.39844 3.60645 7.94434 3.49902 7.39746 3.49902C6.94824 3.49902 6.52344 3.5918 6.12305 3.77734C5.72266 3.96289 5.40039 4.25098 5.15625 4.6416C4.91211 5.02246 4.78027 5.52051 4.76074 6.13574H0.878906C0.908203 4.85645 1.21094 3.79199 1.78711 2.94238C2.36328 2.08301 3.13965 1.44336 4.11621 1.02344C5.09277 0.59375 6.18652 0.378906 7.39746 0.378906C8.73535 0.378906 9.87793 0.603516 10.8252 1.05273C11.7822 1.49219 12.5098 2.13672 13.0078 2.98633C13.5156 3.83594 13.7695 4.86133 13.7695 6.0625C13.7695 6.92188 13.6035 7.69336 13.2715 8.37695C12.9395 9.05078 12.5 9.68066 11.9531 10.2666C11.4062 10.8525 10.8154 11.4434 10.1807 12.0391C9.62402 12.5371 9.24805 13.0693 9.05273 13.6357C8.85742 14.2021 8.75488 14.8564 8.74512 15.5986ZM4.87793 20.1543C4.87793 19.5684 5.07324 19.0801 5.46387 18.6895C5.86426 18.2988 6.40137 18.1035 7.0752 18.1035C7.74902 18.1035 8.28125 18.2988 8.67188 18.6895C9.07227 19.0801 9.27246 19.5684 9.27246 20.1543C9.27246 20.7207 9.07227 21.1992 8.67188 21.5898C8.28125 21.9805 7.74902 22.1758 7.0752 22.1758C6.40137 22.1758 5.86426 21.9805 5.46387 21.5898C5.07324 21.1992 4.87793 20.7207 4.87793 20.1543Z" fill="#0066CC"/>
</svg>
