<svg width="31" height="31" viewBox="0 0 31 31" fill="none" xmlns="http://www.w3.org/2000/svg">
<rect y="16.6602" width="13.66" height="13.66" rx="4" fill="url(#paint0_linear_1_4652)"/>
<path d="M6.86507 19.6958L4.48547 21.9598L5.36823 22.7996L6.86507 21.3755L8.36191 22.7996L9.24467 21.9598L6.86507 19.6958Z" fill="white"/>
<path d="M6.8632 27.3518L9.2428 25.0878L8.36004 24.248L6.8632 25.6721L5.36636 24.248L4.48361 25.0878L6.8632 27.3518Z" fill="white"/>
<rect x="5.97791" y="23.4999" width="1.24992" height="1.24992" transform="rotate(-45 5.97791 23.4999)" fill="white"/>
<rect x="8.91882" y="23.4999" width="1.24992" height="1.24992" transform="rotate(-45 8.91882 23.4999)" fill="white"/>
<rect x="3.03589" y="23.4999" width="1.24992" height="1.24992" transform="rotate(-45 3.03589 23.4999)" fill="white"/>
<path d="M26.66 0H21C18.7909 0 17 1.79086 17 4V9.66C17 11.8691 18.7909 13.66 21 13.66H26.66C28.8691 13.66 30.66 11.8691 30.66 9.66V4C30.66 1.79086 28.8691 0 26.66 0Z" fill="#E84142"/>
<path d="M22.1972 9.71752H21.0032C20.7523 9.71752 20.6284 9.71752 20.5528 9.66912C20.4712 9.61627 20.4213 9.52854 20.4153 9.43184C20.4107 9.34267 20.4727 9.23385 20.5966 9.01621L23.5448 3.81971C23.6702 3.59905 23.7337 3.48872 23.8138 3.44791C23.9 3.40408 24.0027 3.40408 24.0889 3.44791C24.169 3.48872 24.2325 3.59905 24.3579 3.81971L24.964 4.8777C25.1015 5.118 25.171 5.23892 25.2013 5.36587C25.2345 5.50341 25.2345 5.6485 25.2013 5.78604C25.171 5.913 25.103 6.03391 24.9655 6.27422L23.4169 9.01168C23.2779 9.25501 23.2083 9.37743 23.1116 9.46958C23.0073 9.56935 22.8819 9.64191 22.7443 9.68272C22.6189 9.71752 22.4783 9.71752 22.1972 9.71752Z" fill="white"/>
<path d="M26.9233 9.71758H25.2124C24.96 9.71758 24.833 9.71758 24.759 9.66927C24.6774 9.61634 24.6275 9.52712 24.6214 9.43044C24.6169 9.34126 24.6804 9.23245 24.8073 9.0133L25.6612 7.54726C25.7867 7.33114 25.8502 7.22383 25.9288 7.18302C26.0149 7.13919 26.1162 7.13919 26.2024 7.18302C26.2825 7.22383 26.3444 7.33114 26.4714 7.54575L27.3284 9.01179C27.4553 9.23094 27.5203 9.33975 27.5158 9.42892C27.5112 9.52564 27.4598 9.61486 27.3783 9.6677C27.3026 9.71758 27.1757 9.71758 26.9233 9.71758Z" fill="white"/>
<path d="M13.66 4C13.66 1.79086 11.8691 0 9.66 0H4C1.79086 0 0 1.79086 0 4V9.66C0 11.8691 1.79086 13.66 4 13.66H9.66C11.8691 13.66 13.66 11.8691 13.66 9.66V4Z" fill="#1969FF"/>
<path d="M6.67062 3.07663C6.85544 2.97446 7.13664 2.97446 7.32146 3.07663L9.2073 4.11927C9.3186 4.18081 9.37973 4.27251 9.39068 4.36717H9.39249V9.60798C9.39003 9.71124 9.32833 9.81381 9.2073 9.88072L7.32146 10.9234C7.13664 11.0255 6.85544 11.0255 6.67062 10.9234L4.78479 9.88072C4.66427 9.81409 4.60643 9.71081 4.60356 9.60798C4.60327 9.59743 4.60324 9.58874 4.60355 9.58157L4.60356 4.40246C4.60328 4.39517 4.60328 4.38792 4.60356 4.38069L4.60356 4.36717H4.6044C4.61278 4.27146 4.67114 4.1821 4.78479 4.11927L6.67062 3.07663ZM9.09564 7.29097L7.32146 8.27189C7.13664 8.37407 6.85544 8.37407 6.67062 8.27189L4.90039 7.29316V9.59767L6.67062 10.5712C6.77524 10.6297 6.88401 10.6867 6.98993 10.6892L6.99604 10.6893C7.10175 10.6896 7.20439 10.6335 7.30846 10.5803L9.09564 9.58927V7.29097ZM4.29683 9.49404C4.29683 9.69484 4.31913 9.82682 4.36339 9.91979C4.40008 9.99686 4.45513 10.0558 4.55565 10.1274L4.56139 10.1315C4.58345 10.1471 4.60775 10.1634 4.63733 10.1825L4.67221 10.2049L4.77932 10.2726L4.62569 10.5384L4.5058 10.4626L4.48565 10.4497C4.45099 10.4273 4.42225 10.408 4.39546 10.3891C4.10898 10.187 4.00214 9.96654 4.00003 9.50801L4 9.49404H4.29683ZM6.84762 5.88629C6.83388 5.89122 6.821 5.89694 6.80926 5.90343L4.92342 6.94607C4.92144 6.94716 4.91955 6.94825 4.91775 6.94932L4.91616 6.95028L4.91912 6.95206L4.92342 6.9545L6.80926 7.99714C6.821 8.00363 6.83388 8.00935 6.84762 8.01428V5.88629ZM7.14446 5.88629V8.01428C7.15821 8.00935 7.17109 8.00363 7.18283 7.99714L9.06866 6.9545C9.07064 6.95341 9.07253 6.95232 9.07433 6.95125L9.07593 6.95028L9.07297 6.94851L9.06866 6.94607L7.18283 5.90343C7.17109 5.89694 7.15821 5.89122 7.14446 5.88629ZM9.09564 4.73893L7.40391 5.67426L9.09564 6.60959V4.73893ZM4.90039 4.74112V6.6074L6.58817 5.67426L4.90039 4.74112ZM7.18283 3.35139C7.08476 3.29716 6.90733 3.29716 6.80926 3.35139L4.92342 4.39402C4.92144 4.39512 4.91955 4.3962 4.91775 4.39727L4.91616 4.39824L4.91912 4.40001L4.92342 4.40246L6.80926 5.44509C6.90733 5.49932 7.08476 5.49932 7.18283 5.44509L9.06866 4.40246C9.07064 4.40136 9.07253 4.40028 9.07433 4.39921L9.07593 4.39824L9.07297 4.39647L9.06866 4.39402L7.18283 3.35139ZM9.37431 3.46572L9.4942 3.54151L9.51435 3.55447C9.54901 3.57686 9.57774 3.59611 9.60454 3.61502C9.89102 3.81719 9.99786 4.03761 9.99997 4.49613L10 4.5101H9.70317C9.70317 4.3093 9.68087 4.17733 9.6366 4.08434C9.59992 4.00728 9.54487 3.94839 9.44436 3.87673L9.43861 3.87266C9.41655 3.85709 9.39226 3.84078 9.36267 3.82161L9.32779 3.79925L9.22067 3.73159L9.37431 3.46572Z" fill="white"/>
<path d="M26.66 17H21C18.7909 17 17 18.7909 17 21V26.66C17 28.8691 18.7909 30.66 21 30.66H26.66C28.8691 30.66 30.66 28.8691 30.66 26.66V21C30.66 18.7909 28.8691 17 26.66 17Z" fill="#8247E5"/>
<path d="M26.0369 22.1385C25.8893 22.0497 25.6974 22.0497 25.5351 22.1385L24.3838 22.8192L23.6015 23.2632L22.4502 23.944C22.3026 24.0328 22.1107 24.0328 21.9483 23.944L21.0332 23.4112C20.8856 23.3224 20.7823 23.1596 20.7823 22.982V21.9313C20.7823 21.7537 20.8709 21.5909 21.0332 21.5021L21.9336 20.9841C22.0812 20.8953 22.2731 20.8953 22.4354 20.9841L23.3358 21.5021C23.4834 21.5909 23.5867 21.7537 23.5867 21.9313V22.612L24.369 22.1533V21.4725C24.369 21.2949 24.2804 21.1321 24.1181 21.0433L22.4502 20.0666C22.3026 19.9778 22.1107 19.9778 21.9483 20.0666L20.2509 21.0433C20.0886 21.1321 20 21.2949 20 21.4725V23.4408C20 23.6184 20.0886 23.7812 20.2509 23.87L21.9483 24.8467C22.0959 24.9355 22.2878 24.9355 22.4502 24.8467L23.6015 24.1808L24.3838 23.722L25.5351 23.056C25.6827 22.9672 25.8745 22.9672 26.0369 23.056L26.9373 23.574C27.0849 23.6628 27.1882 23.8256 27.1882 24.0032V25.0539C27.1882 25.2315 27.0996 25.3943 26.9373 25.4831L26.0369 26.0159C25.8893 26.1047 25.6974 26.1047 25.5351 26.0159L24.6347 25.4979C24.4871 25.4091 24.3838 25.2463 24.3838 25.0687V24.388L23.6015 24.8467V25.5275C23.6015 25.7051 23.69 25.8679 23.8524 25.9567L25.5498 26.9334C25.6974 27.0222 25.8893 27.0222 26.0517 26.9334L27.7491 25.9567C27.8967 25.8679 28 25.7051 28 25.5275V23.5592C28 23.3816 27.9114 23.2188 27.7491 23.13L26.0369 22.1385Z" fill="white"/>
<defs>
<linearGradient id="paint0_linear_1_4652" x1="6.83" y1="16.6602" x2="6.83" y2="30.3202" gradientUnits="userSpaceOnUse">
<stop stop-color="#FED66F"/>
<stop offset="1" stop-color="#F9CC58"/>
</linearGradient>
</defs>
</svg>
