<svg width="16" height="17" viewBox="0 0 16 17" fill="none" xmlns="http://www.w3.org/2000/svg">
<path d="M13.4336 14.7571H2.56781C1.91752 14.7562 1.29413 14.4813 0.83435 13.9927C0.374574 13.5041 0.11596 12.8417 0.115234 12.1508V4.85C0.11596 4.15912 0.374589 3.49676 0.834378 3.00823C1.29417 2.5197 1.91757 2.24491 2.56781 2.24414H13.4336C14.0839 2.24491 14.7074 2.51969 15.1672 3.0082C15.6271 3.49671 15.8858 4.15907 15.8867 4.85V12.1508C15.8859 12.8418 15.6273 13.5043 15.1674 13.9929C14.7075 14.4815 14.084 14.7563 13.4336 14.7571ZM2.56781 3.45843C2.22056 3.45881 1.88764 3.60555 1.6421 3.86643C1.39656 4.12732 1.25845 4.48105 1.25809 4.85V12.1508C1.25833 12.5198 1.39638 12.8737 1.64194 13.1346C1.88749 13.3956 2.22048 13.5424 2.56781 13.5428H13.4336C13.781 13.5424 14.114 13.3957 14.3597 13.1347C14.6053 12.8737 14.7434 12.5198 14.7438 12.1508V4.85C14.7433 4.481 14.6051 4.12728 14.3595 3.8664C14.1139 3.60553 13.7809 3.45881 13.4336 3.45843H2.56781Z" fill="white"/>
<path d="M13.4336 14.7571H2.56781C1.91752 14.7562 1.29413 14.4813 0.83435 13.9927C0.374574 13.5041 0.11596 12.8417 0.115234 12.1508V4.85C0.11596 4.15912 0.374589 3.49676 0.834378 3.00823C1.29417 2.5197 1.91757 2.24491 2.56781 2.24414H13.4336C14.0839 2.24491 14.7074 2.51969 15.1672 3.0082C15.6271 3.49671 15.8858 4.15907 15.8867 4.85V12.1508C15.8859 12.8418 15.6273 13.5043 15.1674 13.9929C14.7075 14.4815 14.084 14.7563 13.4336 14.7571ZM2.56781 3.45843C2.22056 3.45881 1.88764 3.60555 1.6421 3.86643C1.39656 4.12732 1.25845 4.48105 1.25809 4.85V12.1508C1.25833 12.5198 1.39638 12.8737 1.64194 13.1346C1.88749 13.3956 2.22048 13.5424 2.56781 13.5428H13.4336C13.781 13.5424 14.114 13.3957 14.3597 13.1347C14.6053 12.8737 14.7434 12.5198 14.7438 12.1508V4.85C14.7433 4.481 14.6051 4.12728 14.3595 3.8664C14.1139 3.60553 13.7809 3.45881 13.4336 3.45843H2.56781Z" fill="white"/>
<path d="M7.9938 10.1342C7.51435 10.1392 7.0473 9.97241 6.66808 9.66066L0.556999 4.48635C0.438485 4.38593 0.362369 4.23961 0.345394 4.07957C0.328419 3.91952 0.371977 3.75887 0.466485 3.63295C0.560993 3.50703 0.698709 3.42615 0.849339 3.40812C0.999968 3.39008 1.15117 3.43636 1.26968 3.53678L7.37894 8.71109C7.55941 8.8471 7.77534 8.91987 7.9966 8.91926C8.21785 8.91865 8.43342 8.84469 8.61323 8.70769L14.6471 3.53921C14.765 3.43815 14.9158 3.39099 15.0665 3.40812C15.2171 3.42524 15.3551 3.50524 15.4503 3.63052C15.5454 3.7558 15.5897 3.91609 15.5736 4.07613C15.5575 4.23618 15.4822 4.38286 15.3643 4.48392L9.33231 9.6524C8.95048 9.96964 8.47849 10.1395 7.9938 10.1342Z" fill="white"/>
</svg>
