<svg width="15" height="14" viewBox="0 0 15 14" fill="none" xmlns="http://www.w3.org/2000/svg">
<path fill-rule="evenodd" clip-rule="evenodd" d="M14.5541 13.2273C14.5541 13.6541 14.2073 14 13.7793 14H10.2018V8.57864H12.0267L12.2998 6.46555H10.2018V5.11667C10.2018 4.50497 10.372 4.08815 11.252 4.08815L12.3739 4.08777V2.19776C12.1801 2.17183 11.5139 2.11462 10.7388 2.11462C9.12111 2.11462 8.01365 3.09891 8.01365 4.9073V6.46555H6.18415V8.57864H8.01365V14H1.28992C0.861991 14 0.515137 13.6541 0.515137 13.2273V0.772632C0.515137 0.345891 0.861991 0 1.28992 0H13.7793C14.2073 0 14.5541 0.345891 14.5541 0.772632V13.2273Z" fill="white"/>
</svg>
